<?xml version="1.0" encoding="utf-8"?>
<!-- Generator: Adobe Illustrator 15.1.0, SVG Export Plug-In . SVG Version: 6.00 Build 0)  -->
<!DOCTYPE svg PUBLIC "-//W3C//DTD SVG 1.1//EN" "http://www.w3.org/Graphics/SVG/1.1/DTD/svg11.dtd">
<svg version="1.1" id="Layer_1" xmlns:sketch="http://www.bohemiancoding.com/sketch/ns"
	 xmlns="http://www.w3.org/2000/svg" xmlns:xlink="http://www.w3.org/1999/xlink" x="0px" y="0px" width="9.762px" height="9.958px"
	 viewBox="-4.992 0.519 9.762 9.958" enable-background="new -4.992 0.519 9.762 9.958" xml:space="preserve">
<title>Fill 1</title>
<desc>Created with Sketch.</desc>
<g id="Page-1" sketch:type="MSPage">
	<g id="INVOICE-1" transform="translate(-301.000000, -54.000000)" sketch:type="MSArtboardGroup">
		<g id="ZAGLAVLJE" transform="translate(30.000000, 15.000000)" sketch:type="MSLayerGroup">
			<g id="KONTAKTI" transform="translate(267.000000, 35.000000)" sketch:type="MSShapeGroup">
				<g id="Oval-1-_x2B_-Fill-1">
					<path id="Fill-1" fill="#999999" d="M8.765,12.375c0.02,0.162-0.028,0.303-0.143,0.422L7.246,14.19
						c-0.062,0.07-0.143,0.133-0.243,0.182c-0.101,0.049-0.197,0.08-0.295,0.094c-0.007,0-0.028,0-0.062,0.004
						c-0.034,0.005-0.08,0.008-0.134,0.008c-0.131,0-0.343-0.023-0.635-0.068c-0.293-0.045-0.651-0.158-1.076-0.336
						c-0.424-0.182-0.904-0.451-1.442-0.809c-0.536-0.357-1.109-0.852-1.716-1.479c-0.481-0.484-0.88-0.95-1.198-1.393
						C0.128,9.95-0.125,9.541-0.319,9.164c-0.193-0.376-0.338-0.717-0.434-1.023c-0.097-0.306-0.161-0.57-0.195-0.792
						c-0.035-0.221-0.05-0.394-0.042-0.521c0.007-0.126,0.01-0.197,0.01-0.211c0.014-0.099,0.044-0.198,0.093-0.301
						c0.049-0.101,0.108-0.184,0.176-0.247l1.375-1.403c0.097-0.098,0.206-0.147,0.33-0.147c0.09,0,0.169,0.026,0.238,0.079
						C1.3,4.648,1.359,4.714,1.406,4.791l1.106,2.141c0.062,0.114,0.08,0.235,0.052,0.37C2.538,7.436,2.478,7.548,2.389,7.64
						L1.883,8.157C1.869,8.171,1.856,8.194,1.846,8.226C1.835,8.256,1.83,8.283,1.83,8.304c0.027,0.147,0.09,0.317,0.187,0.507
						c0.082,0.169,0.21,0.375,0.382,0.618c0.172,0.243,0.417,0.521,0.734,0.839c0.311,0.322,0.585,0.574,0.828,0.755
						c0.24,0.178,0.443,0.309,0.604,0.395c0.162,0.085,0.286,0.135,0.372,0.154l0.128,0.024c0.015,0,0.038-0.006,0.067-0.016
						c0.032-0.01,0.054-0.021,0.067-0.037l0.588-0.612c0.125-0.112,0.27-0.168,0.436-0.168c0.117,0,0.207,0.021,0.277,0.061h0.01
						l1.995,1.203C8.651,12.12,8.737,12.234,8.765,12.375L8.765,12.375z"/>
				</g>
			</g>
		</g>
	</g>
</g>
</svg>
